<?xml version="1.0" standalone="no"?><!DOCTYPE svg PUBLIC "-//W3C//DTD SVG 1.1//EN" "http://www.w3.org/Graphics/SVG/1.1/DTD/svg11.dtd"><svg t="1584508919999" class="icon" viewBox="0 0 1535 1024" version="1.1" xmlns="http://www.w3.org/2000/svg" p-id="40299" xmlns:xlink="http://www.w3.org/1999/xlink" width="191.875" height="128"><defs><style type="text/css"></style></defs><path d="M667.731701 71.679642c-30.468968 0.168959-60.149459 7.408603-86.348368 25.707391-56.135399 39.229244-81.591912 118.163889-126.744966 173.623452-41.799471 51.353343-95.810081 75.232904-149.646612 103.515642-44.912415 23.587722-64.05088 79.487603-71.776921 134.312289-6.09277 43.263784-8.581077 88.734276-27.043705 126.842246-21.196694 43.755301-60.216019 71.055005-87.689801 109.674971-45.147934 63.487683-54.706926 158.944485-23.336844 233.025395 6.717406 15.861681 15.769521 31.436643 29.357933 39.106365 11.120584 6.271969 23.90004 6.507487 36.249419 6.507487h0.670717l1123.609102-0.133119c12.426178 0 25.482113-0.189439 36.295498-7.393243 17.612712-11.724741 23.541642-37.575492 34.815826-57.333474 22.323088-39.116604 66.508467-54.793966 88.795716-93.93105 9.97371-17.515432 14.238649-37.150534 14.254009-57.410273v-0.343038c-0.0512-32.225119-10.818506-66.02207-26.449788-95.374883a255.793921 255.793921 0 0 0-16.660396-27.115385c-35.604302-50.549507-82.631267-92.261939-104.191479-152.810756-28.799856-80.880236-5.340133-176.424078-29.839211-259.244784-17.254314-58.336988-58.992345-105.881071-109.127135-124.312978-43.9345-16.148399-89.98355-10.454988-136.319318-4.761576-30.909285 3.793901-61.94657 7.587802-92.558897 4.899815-62.412488-5.478373-120.513957-37.590852-180.468858-58.715866-30.05425-10.598347-62.243529-18.165669-93.664812-18.334628h-2.181109z" fill="#F7F8F9" p-id="40300"></path><path d="M511.99744 286.718566m12.287939 0l584.701076 0q12.287939 0 12.287939 12.287939l0 507.90146q0 12.287939-12.287939 12.287939l-584.701076 0q-12.287939 0-12.287939-12.287939l0-507.90146q0-12.287939 12.287939-12.287939Z" fill="#F2F2F2" p-id="40301"></path><path d="M524.285379 286.718566h584.701076a12.287939 12.287939 0 0 1 12.287939 12.287939v29.265774H511.99744V299.006505A12.287939 12.287939 0 0 1 524.285379 286.718566z" fill="#C5CFD6" p-id="40302"></path><path d="M531.96534 308.222459m-6.143969 0a6.143969 6.143969 0 1 0 12.287938 0 6.143969 6.143969 0 1 0-12.287938 0Z" fill="#F2F2F2" p-id="40303"></path><path d="M550.397248 308.222459m-6.143969 0a6.143969 6.143969 0 1 0 12.287938 0 6.143969 6.143969 0 1 0-12.287938 0Z" fill="#F2F2F2" p-id="40304"></path><path d="M568.829156 308.222459m-6.143969 0a6.143969 6.143969 0 1 0 12.287938 0 6.143969 6.143969 0 1 0-12.287938 0Z" fill="#F2F2F2" p-id="40305"></path><path d="M536.573317 352.766236m6.143969 0l540.669297 0q6.143969 0 6.143969 6.143969l0 423.580603q0 6.143969-6.143969 6.143969l-540.669297 0q-6.143969 0-6.143969-6.143969l0-423.580603q0-6.143969 6.143969-6.143969Z" fill="#FFFFFF" p-id="40306"></path><path d="M734.902857 556.434286l-99.108571 56.32-99.108572-56.32a7.862857 7.862857 0 0 1-4.022857-7.131429 7.68 7.68 0 0 1 4.388572-6.765714l91.428571-46.08a15.542857 15.542857 0 0 1 14.445714 0l91.428572 45.531428a8.594286 8.594286 0 0 1 0 14.445715zM615.68 749.714286l-83.931429-51.931429a15.177143 15.177143 0 0 1-7.862857-13.714286v-104.777142a7.497143 7.497143 0 0 1 3.84-6.948572 7.862857 7.862857 0 0 1 8.045715 0l83.931428 52.114286a15.725714 15.725714 0 0 1 7.68 13.531428v104.777143a7.68 7.68 0 0 1-11.702857 6.765715z m40.045714 0l83.931429-51.931429a16.091429 16.091429 0 0 0 7.68-13.714286v-104.777142a7.68 7.68 0 0 0-4.022857-6.948572 7.862857 7.862857 0 0 0-8.045715 0l-83.931428 52.114286a15.177143 15.177143 0 0 0-7.497143 13.531428v104.777143a8.045714 8.045714 0 0 0 11.885714 6.765715z" fill="#AFB9C5" p-id="40307"></path><path d="M823.291884 460.285699m5.119974 0l168.959155 0q5.119974 0 5.119975 5.119974l0 0q0 5.119974-5.119975 5.119974l-168.959155 0q-5.119974 0-5.119974-5.119974l0 0q0-5.119974 5.119974-5.119974Z" fill="#DDE3E9" p-id="40308"></path><path d="M782.332088 511.485443m5.119975 0l250.878745 0q5.119974 0 5.119975 5.119974l0 0q0 5.119974-5.119975 5.119974l-250.878745 0q-5.119974 0-5.119975-5.119974l0 0q0-5.119974 5.119975-5.119974Z" fill="#DDE3E9" p-id="40309"></path><path d="M782.332088 552.957235m5.119975 0l250.878745 0q5.119974 0 5.119975 5.119975l0 0q0 5.119974-5.119975 5.119974l-250.878745 0q-5.119974 0-5.119975-5.119974l0 0q0-5.119974 5.119975-5.119975Z" fill="#DDE3E9" p-id="40310"></path><path d="M782.332088 599.037005m5.119975 0l250.878745 0q5.119974 0 5.119975 5.119974l0 0q0 5.119974-5.119975 5.119975l-250.878745 0q-5.119974 0-5.119975-5.119975l0 0q0-5.119974 5.119975-5.119974Z" fill="#DDE3E9" p-id="40311"></path><path d="M782.332088 639.9968m5.119975 0l250.878745 0q5.119974 0 5.119975 5.119974l0 0q0 5.119974-5.119975 5.119975l-250.878745 0q-5.119974 0-5.119975-5.119975l0 0q0-5.119974 5.119975-5.119974Z" fill="#DDE3E9" p-id="40312"></path><path d="M987.131064 711.164444m10.239949 0l35.839821 0q10.239949 0 10.239949 10.239949l0 0q0 10.239949-10.239949 10.239949l-35.839821 0q-10.239949 0-10.239949-10.239949l0 0q0-10.239949 10.239949-10.239949Z" fill="#2288FC" p-id="40313"></path><path d="M1039.672242 667.352823c4.213739-0.522237 8.703956-0.337918 12.625857 1.356793 8.330198 3.599342 10.700746 13.619132 10.582987 21.770132-0.122879 8.765396-1.95071 18.344868 4.592617 25.410433 3.010545 3.246064 6.753246 5.734371 9.707471 9.036754 3.153904 3.532782 5.631972 7.577562 7.464923 11.924421 3.368943 7.97692 5.017575 17.356713 1.94047 25.722751-2.713586 7.372763-9.533392 14.01849-8.05884 22.394768 1.535992 8.739796 10.188749 15.421363 15.595442 21.93397 6.123489 7.367643 11.760581 16.778156 12.682177 26.439548 0.890876 9.262034-3.071985 18.621347-9.139154 25.620352-12.134339 13.98777-30.366568 20.838296-48.757517 20.797336-7.807961-0.01536-16.645037-0.378878-23.382923-4.648937-2.08383-1.320953-3.179504-2.805746-4.418538-4.863975-1.111034-1.843191-2.575347-3.046385-4.270058-4.351978-3.732461-2.872306-6.425568-6.743006-8.140759-11.074505-6.671327-16.824236-1.341433-37.631812 7.9974-52.571897 2.216949-3.543022 4.02942-6.947805 2.954225-11.161544-1.126394-4.403178-3.880941-8.381398-6.318049-12.16506-2.411508-3.737581-5.166054-7.311323-7.050204-11.356103-1.97119-4.234219-2.524147-8.673237-2.17599-13.311933 0.655357-8.709076 4.346858-16.747436 9.574353-23.756681 5.032935-6.748126 10.946505-13.204414 10.956745-22.04661 0.01536-9.369553-6.133729-17.704871-3.517423-27.238264 1.085435-3.94238 3.266544-7.98716 6.778847-10.357708 3.368943-2.268149 7.813081-3.010545 11.775941-3.502063z" fill="#DDE3E9" p-id="40314"></path><path d="M1036.922815 682.338988c0.0768-1.264634 1.541112-2.01727 2.698227-1.689591 1.515512 0.435198 1.484793 1.879031 1.448953 3.164144-0.122879 3.96286 0.440318 7.807961 1.372153 11.647942 1.94559 7.98716 5.529572 15.344563 8.376278 23.014285 2.836466 7.664602 4.172779 15.580082 2.508787 23.685001-1.576952 7.649242-4.04478 15.098805-5.652451 22.753166-1.413113 6.748126-2.918385 13.864891-0.767997 20.597657 2.07871 6.476768 6.671327 11.750341 9.978831 17.607592 6.840286 12.118979 9.881551 25.564032 10.280908 39.403323 0.189439 6.425568 0.02048 12.907455-1.443833 19.210144-0.839676 3.630062-1.97119 8.534997-5.027814 11.038665-1.407993 1.157114-3.814381 1.556472-4.997095-0.153599-1.116154-1.607672-0.138239-4.09086 0.215038-5.800931 1.530872-7.403483 1.838071-14.970805 1.469433-22.486928-0.353278-7.280604-1.198074-14.550967-3.445743-21.503892-2.08895-6.456288-5.263334-12.252099-8.995795-17.899431-3.804141-5.754851-7.761881-11.519942-9.333713-18.334628-1.597432-6.922205-0.296959-13.96729 1.433593-20.761496 1.838071-7.183324 4.239339-14.161849 6.727646-21.145494 2.421748-6.814686 3.276784-13.260734 1.94559-20.387738-2.647027-14.07993-9.712591-27.299704-8.790996-41.963311z" fill="#C5CFD6" p-id="40315"></path><path d="M1152.700796 685.436573c5.350373 1.602552 10.659787 4.188139 14.469048 8.243159 8.104919 8.627157 5.621732 21.662612 1.146874 31.180644-4.812776 10.250189-12.113859 20.551577-8.00252 32.307038 1.894391 5.406693 5.068775 10.301388 6.865886 15.749041 1.91487 5.821411 2.744306 11.883461 2.636787 17.955751-0.194559 11.161544-3.199984 23.065485-11.356103 31.283043-7.188444 7.234524-18.933665 11.463623-21.616532 22.09269-2.805746 11.089865 4.04478 23.505802 7.091164 34.01199 3.440623 11.888581 5.207014 25.93267 1.177594 37.785411-3.855341 11.356103-13.603772 20.285339-24.632196 25.313153-22.04149 10.05563-47.636242 8.509397-69.734052-1.228794-9.384913-4.136939-19.829661-9.215954-25.661311-17.791911-1.802231-2.652147-2.334708-4.976615-2.728947-8.048599-0.348158-2.759666-1.474553-4.945895-2.815986-7.372764-2.964465-5.345253-4.142059-11.315143-3.90142-17.315753 0.921595-23.301003 18.421668-44.968735 37.611332-57.615072 4.546537-3.000305 8.540117-6.05181 9.492432-11.576262 0.993275-5.770211-0.209919-11.898821-1.126394-17.633192-0.911355-5.672932-2.324468-11.315143-2.437108-17.069995-0.117759-6.02109 1.576952-11.535302 4.464618-16.803756 5.427173-9.90203 14.146489-17.407913 24.166279-22.896525 9.651152-5.283814 20.198299-9.763791 24.924035-20.157339 5.007335-11.013065 2.04287-24.06388 10.265549-33.883991 3.404783-4.07038 8.181719-7.679962 13.670332-8.611797 5.258214-0.895996 11.007945 0.573437 16.030639 2.08383z" fill="#DDE3E9" p-id="40316"></path><path d="M1141.779891 703.648322c0.757756-1.438713 2.918385-1.551352 4.126699-0.547838 1.592312 1.315833 0.798716 3.000305 0.07168 4.495338-2.237429 4.597737-3.594222 9.425873-4.495337 14.448568-1.884151 10.434508-1.459193 21.002135-2.09919 31.549282-0.634877 10.531787-3.210224 20.561817-9.482193 29.229934-5.91869 8.171479-12.810176 15.631282-18.774946 23.797641-5.258214 7.193564-10.823626 14.771126-11.781061 23.848841-0.926715 8.729556 1.791991 17.382313 2.672627 26.035069 1.812471 17.90455-1.638392 35.353423-8.447958 51.865341-3.164144 7.669722-6.789086 15.216564-11.868101 21.862291-2.918385 3.824621-6.865886 9.000915-11.85274 10.326988-2.293749 0.614397-5.396453-0.194559-5.913571-2.836466-0.486398-2.483188 1.99679-4.889576 3.317744-6.717406 5.739491-7.90524 10.101709-16.655277 13.629372-25.702272 3.415023-8.765396 6.236129-17.776551 7.203804-27.161464 0.901115-8.703956 0.153599-17.218474-1.351674-25.85075-1.525752-8.796116-3.225584-17.684392-1.520632-26.552188 1.740791-9.000915 7.009245-16.609197 12.671937-23.685001 5.99037-7.490523 12.554177-14.428088 19.220383-21.340054 6.502367-6.737886 10.926025-13.870011 13.081535-22.973325 4.259819-17.98647 2.754546-37.309253 11.591622-54.092529z" fill="#C5CFD6" p-id="40317"></path><path d="M987.694262 753.009995c8.862676 0 16.660397 4.623337 22.031249 11.187144 6.287329 7.679962 7.557082 17.059755 10.11195 26.214269 1.269754 4.556777 3.455983 9.077715 7.285723 12.170179 3.481583 2.815986 7.90524 3.379183 12.0729 4.756456 8.335318 2.744306 15.062965 9.369553 17.715111 17.443753 3.246064 9.855951-0.189439 19.793821 0.404478 29.777771 0.542717 9.169874 9.733071 14.894006 17.131435 19.292064 7.290844 4.331498 13.859771 8.391638 16.056239 16.834476 2.329588 8.959955 3.112944 18.959265-0.117759 27.801461-5.370853 14.735286-21.089175 21.222294-36.275019 22.230928-13.788091 0.911355-31.119204-0.522237-41.471792-10.362828-6.195169-5.887971-8.437718-14.131129-8.156119-22.323088 0.174079-5.094375 1.198074-10.147789 2.524147-15.068085 0.942075-3.491823 2.211829-6.968285 2.575347-10.577867 0.962555-9.594832-8.05372-11.438023-15.728561-14.06969-9.753551-3.348463-16.578477-9.676752-21.329814-18.483107-4.418538-8.207319-6.277089-17.418153-3.624941-26.449788 1.351673-4.607977 3.809261-8.796116 7.137244-12.354498 1.469433-1.566712 3.532782-2.877426 4.858856-4.520938 1.228794-1.535992 0.962555-3.532782 0.537597-5.324773-1.96607-8.319958-8.0998-15.206324-10.291149-23.505802-1.98143-7.490523-0.808956-16.819116 6.15421-21.652372 3.010545-2.08895 6.717406-2.990065 10.393548-3.015665z" fill="#C5CFD6" p-id="40318"></path><path d="M999.777401 774.677727c9.395153 9.845711 11.95002 23.208844 12.697537 36.162379 0.419838 7.260124-0.01536 14.919605 2.150389 21.96469 1.858551 6.02621 6.210529 10.634187 10.695626 14.991285 9.026515 8.765396 19.092385 17.679272 21.734292 30.371688 1.546232 7.444443 0.501757 15.139764 2.641907 22.502288 1.94559 6.696927 5.375973 13.270974 9.543632 18.923425 3.353583 4.556777 7.731161 8.03836 11.397063 12.282819 1.121274 1.295354 2.723826 3.199984 2.257909 5.032934-0.537597 2.140149-3.312623 2.815986-5.278694 2.478068-4.587497-0.783356-8.447958-5.089255-11.448263-8.222679a70.911645 70.911645 0 0 1-11.141064-15.032245c-3.363823-6.143969-6.07229-12.651457-7.229404-19.537822-1.198074-7.142364-0.604157-14.591927-3.343343-21.442453-4.613097-11.535302-15.805361-18.344868-23.894921-27.340663-10.07611-11.197384-8.575957-25.139074-7.541722-38.922045 0.563197-7.577562 1.126394-16.127919-2.764786-23.039885-1.484793-2.641907-4.792296-5.104614-5.427173-8.0998-0.588797-2.749426 2.606067-5.529572 4.945895-3.071984z" fill="#AFB9C5" p-id="40319"></path><path d="M1006.894166 936.581557c0 57.359073 9.369553 87.413323 58.823385 87.413323 49.458953 0 58.828506-30.05425 58.828506-87.413323h-117.657011z" fill="#89C5CC" p-id="40320"></path><path d="M470.663887 752.636237l56.120039 141.045055 37.642052 119.244203h14.863286L521.740751 752.636237z" fill="#FECAC3" p-id="40321"></path><path d="M459.364103 752.636237c-0.599037 49.561352-9.318353 116.295099-10.710986 119.382443-0.921595 2.06335-32.972635 28.257139-96.13776 78.581367l10.239949 10.879946c74.526347-43.151144 113.514952-67.604142 116.965815-73.358994 5.171174-8.632277 22.01589-88.06356 35.532623-135.484762H459.364103z" fill="#FECAC3" p-id="40322"></path><path d="M344.113479 950.216049c-1.566712 1.320953-3.635182 3.502062-6.200289 6.553567l41.451313 49.407753c5.294054-2.252789 6.947805-4.904935 4.966375-7.95132a359.586042 359.586042 0 0 1-4.879335-7.659482l-7.9718-27.586422a5.119974 5.119974 0 0 0-6.451168-3.461103l-0.916476 0.286719c-3.333103-1.566712-5.672932-3.148784-7.014364-4.751336a10.465228 10.465228 0 0 1-1.387514-2.278389 7.490523 7.490523 0 0 0-11.596742-2.559987zM556.423458 1015.034925c0 2.04799 0.343038 5.032935 1.023995 8.959955h64.496317c1.679352-5.503972 0.711676-8.473558-2.903025-8.908755a359.586042 359.586042 0 0 1-8.995795-1.187834l-26.260349-11.622342a5.119974 5.119974 0 0 0-6.799326 2.713586l-0.368638 0.880636c-3.338223 1.551352-6.05693 2.324468-8.145879 2.324468-0.752636 0-1.633272-0.133119-2.636787-0.399358a7.490523 7.490523 0 0 0-9.410513 7.234524z" fill="#E4E4E4" p-id="40323"></path><path d="M508.398098 1000.647797l70.671007-7.618522L526.691767 752.636237H463.393523z" fill="#5C648C" p-id="40324"></path><path d="M367.132884 933.048775l46.356249 54.481647c48.824076-52.945655 77.291134-87.500362 85.401173-103.648761 8.0998-16.148399 15.385523-59.898581 21.85205-131.245424H449.482553c-3.532782 62.770886-5.91357 95.615522-7.142365 98.533907-1.228794 2.918385-26.301308 30.212969-75.207304 81.878631z" fill="#7780AA" p-id="40325"></path><path d="M488.732276 599.9842c12.907455 0 17.602472-15.493043 24.934276-23.9922 5.247974-6.08765 14.202809-4.270059 16.854955-12.789696 6.661087-21.411733-11.176904-36.484938-34.447187-36.484938-23.275404 0-38.963005 13.219774-42.352429 33.090395-3.389423 19.870621 11.734981 40.176439 35.010385 40.176439z" fill="#191847" p-id="40326"></path><path d="M490.155629 586.150029c-5.201894-6.123489-8.724436-13.629372-8.140759-22.03637 1.699832-24.232839 35.343183-18.902945 41.89163-6.671326 6.543327 12.226499 5.765091 43.253544-2.693106 45.439773-3.374063 0.870396-10.557387-1.264634-17.868711-5.683172l4.587497 32.557917h-27.105144l9.328593-43.606822z" fill="#FECAC3" p-id="40327"></path><path d="M501.583412 570.564827a7.050205 7.050205 0 0 0-3.312623-0.819196c-3.839981 0-6.952925 3.041265-6.952926 6.794206 0 1.530872 0.517117 2.943985 1.392633 4.08062-1.648632 2.723826-2.769906 5.580772-3.138544 8.524757-5.713891 0-26.552187-21.662612-5.790691-42.045229s50.764546 8.714196 41.748271 10.408907c-5.181414 0.972795-15.621042 5.93917-23.94612 13.055935z" fill="#191847" p-id="40328"></path><path d="M571.537622 622.210009l43.212584-13.086655c8.05884-6.328288 15.662002-10.956745 22.804366-13.88537 2.07871-0.394238 5.519332-0.163839 1.223674 4.756456-4.300778 4.915175-8.601557 10.291149-7.372763 12.354498 1.223674 2.05823 5.698532 0.506877 6.988765 3.773421 0.865276 2.175989-6.543327 3.737581-22.225809 4.679657l-33.597272 19.94742-11.033545-18.539427z m-3.819501 76.850816l36.367179 26.931065c9.861071 2.682867 18.09911 6.02621 24.719236 10.01979 1.561592 1.433593 3.450863 4.346858-3.031025 3.839981-6.481888-0.496638-13.327293-0.732156-14.218169 1.495032-0.895996 2.232309 3.025905 4.899816 1.218554 7.910361-1.203194 2.00191-6.901725-3.025905-17.085354-15.093685l-36.00878-15.062965 8.038359-20.044699z" fill="#FECAC3" p-id="40329"></path><path d="M511.234564 626.515907c19.804061 37.247814 48.440078 65.796791 89.95795 95.477283l-15.723441 17.878951c-46.351128-17.377193-70.814366-27.857781-82.825826-63.047365-3.020785-8.831956-5.119974-36.986695-6.932446-51.798781l15.523763 1.489912z" fill="#B7CDE6" p-id="40330"></path><path d="M455.882521 750.608727h87.776841c-19.885981-61.168334-30.04401-103.152124-30.474088-125.95137-0.02048-1.162234-2.150389-3.210224-3.092464-2.938866-6.881246 1.96095-14.248889 1.228794-22.09781-2.201589-20.812696 33.761111-28.00626 75.325063-32.117599 131.091825z" fill="#F2F2F2" p-id="40331"></path><path d="M495.485523 619.568102c25.159554 0.209919 65.98111 4.843496 113.064394-10.398668l4.648937 23.423883c-35.583822 23.091085-71.613082 40.970035-103.187964 38.430528 13.711291 59.320023 13.076415 107.877861-17.187754 107.87786h-46.806806c-7.434203-50.390788 12.103619-120.257959 30.218089-155.503862 0.691197-1.341433 2.165749-3.880941 5.631972-3.880941h13.598652l0.02048 0.0512z" fill="#D1E2F5" p-id="40332"></path></svg>