<?xml version="1.0" standalone="no"?><!DOCTYPE svg PUBLIC "-//W3C//DTD SVG 1.1//EN" "http://www.w3.org/Graphics/SVG/1.1/DTD/svg11.dtd"><svg t="1584386117288" class="icon" viewBox="0 0 1024 1024" version="1.1" xmlns="http://www.w3.org/2000/svg" p-id="176658" xmlns:xlink="http://www.w3.org/1999/xlink" width="128" height="128"><defs><style type="text/css"></style></defs><path d="M512 0C228.864 0 0 228.864 0 512s228.864 512 512 512 512-228.864 512-512S795.136 0 512 0z m252.928 355.328L445.44 671.744c-6.144 6.144-14.848 9.216-20.992 9.216-6.144 0-14.848-3.072-20.992-9.216L259.072 527.36c-12.288-12.288-12.288-30.208 0-41.984s30.208-12.288 41.984 0l123.392 123.392 297.984-297.984c12.288-12.288 30.208-12.288 41.984 0 12.8 11.264 12.8 32.768 0.512 44.544z" fill="#11D35F" p-id="176659"></path></svg>