<?xml version="1.0" standalone="no"?><!DOCTYPE svg PUBLIC "-//W3C//DTD SVG 1.1//EN" "http://www.w3.org/Graphics/SVG/1.1/DTD/svg11.dtd">
<svg t="1584384722535" class="icon" viewBox="0 0 2560 1024" version="1.1" xmlns="http://www.w3.org/2000/svg" p-id="56894" xmlns:xlink="http://www.w3.org/1999/xlink" width="320" height="128">
<defs><style type="text/css"></style></defs><path d="M0 0h2560v1024H0z" fill="#0289FF" p-id="56895"></path>
  <path d="m0,0l2560,0l0,1024l-2560,0l0,-1024z" stroke-dasharray="null" fill="#0289ff" id="svg_1"/>
  <path d="m0,1024l0.21943,-172.77808c106.93486,-33.84686 341.79656,-79.31244 481.45919,111.55383c1.0423,-1.0752 154.56912,-181.4967 258.28207,-167.53369c103.70923,13.95929 114.2674,66.55267 167.56293,83.76685c53.29919,17.21051 226.8526,54.74011 314.12665,-202.4375c2.11743,0.78998 118.69983,0 118.69983,0s36.35938,212.95544 293.18591,209.41901c30.57361,-1.86517 97.55786,-28.26971 146.5929,-76.78906c49.03491,-48.51563 123.69189,-60.42328 223.40747,20.94446c25.39893,13.16937 107.96265,63.55017 237.34131,-20.94446c28.93896,-20.96271 199.68359,-91.17621 319.22827,92.13074l-0.10596,122.66791l-2559.99999,0l-0.00001,0z" fill="#ffffff" id="svg_2"/>
  <path d="m1072.53027,508.99017s51.84363,-39.71658 70.92297,-46.70538c19.07568,-6.98514 21.50403,10.4631 21.50403,23.35086l0,179.83633c0,12.88782 -21.50403,23.35089 -21.50403,23.35089s-62.43835,46.67609 -70.92297,46.70538c-8.48462,0.03656 -16.14258,-10.49597 -21.47107,-23.35083c0,0 -19.74854,-62.33966 0,-179.83636a73.77554,73.77554 0 0 1 21.46741,-23.35086l0.00366,-0.00003zm414.80042,0s-51.84363,-39.71658 -70.91931,-46.70538c-19.07935,-6.98514 -21.50403,10.4631 -21.50403,23.35086l0,179.83633c0,12.88782 21.50403,23.35089 21.50403,23.35089s62.43103,46.67609 70.91931,46.70538c8.48462,0.03656 16.14258,-10.49603 21.46741,-23.35089c0,0 19.74854,-62.33966 0,-179.83636a73.77554,73.77554 0 0 0 -21.46741,-23.35083z" stroke-dasharray="null" fill="#87c7ff" id="svg_3"/>
  <path d="m1282.06995,135.31429c67.05737,0 170.86902,210.17598 170.86902,383.02354c0,169.53052 -40.16638,242.74652 -40.16638,242.74652l-257.48486,0.12799s-44.0575,-70.02698 -44.0575,-242.87451c0,-172.84756 103.78235,-383.02354 170.83972,-383.02354z" fill="#ffffff" id="svg_4"/>
  <path d="m1433.81946,699.44318c-10.35339,42.15222 -21.04688,61.64111 -21.04688,61.64111l-257.48474,0.12805s-11.97717,-19.03912 -23.44238,-61.76917l301.97034,0l0.00366,0zm-148.0741,-563.92407c29.49854,3.24754 65.3678,44.81464 96.30725,104.79909l-199.95435,0c30.93213,-59.98447 66.79773,-101.55154 96.2926,-104.79909l7.35449,0z" fill="#87c7ff" id="svg_5"/>
  <path d="m1346.19897,451.0296l-67.89795,67.25177a9.46171,9.37161 0 0 1 -11.55005,1.45557a12.50625,12.38715 0 0 1 -1.88916,-1.45557l-39.06079,-38.68652a9.52734,9.43661 0 0 1 13.43884,-13.38077l32.34399,32.10074l61.17163,-60.58926a9.50391,9.41339 0 0 1 13.43909,13.31107l0.00439,-0.00702zm-60.19897,-77.0296c-57.96106,0 -105,46.59109 -105,104s47.03894,104 105,104s105,-46.59106 105,-104s-47.03894,-104 -105,-104z" stroke-dasharray="null" fill="#0fc27c" id="svg_7"/>
  <path d="m599.77142,305.37143c31.30518,0 56.68573,-25.38055 56.68573,-56.68571c0,-31.30515 -25.38055,-56.6857 -56.68573,-56.6857c-31.30511,0 -56.68573,25.38057 -56.68573,56.6857c0,31.30516 25.38062,56.68571 56.68573,56.68571zm0,-10.97144c-25.2489,0 -45.71429,-20.46536 -45.71429,-45.71428s20.46539,-45.71428 45.71429,-45.71428s45.71429,20.46535 45.71429,45.71428s-20.46539,45.71428 -45.71429,45.71428zm1316.57135,199.3143c20.19836,0 36.57153,-16.37305 36.57153,-36.57144s-16.37317,-36.57141 -36.57153,-36.57141s-36.57141,16.37302 -36.57141,36.57141s16.37305,36.57144 36.57141,36.57144zm-1316.57135,-213.94287a21.94286,21.94286 0 1 1 0,-43.88571a21.94286,21.94286 0 0 1 0,43.88571z" fill-opacity="0.2" fill="#87c7ff" id="svg_8"/>
  <path d="m422.39999,744.22858m-107.88571,0a107.88571,107.88571 0 1 0 215.77142,0a107.88571,107.88571 0 1 0 -215.77142,0z" fill-opacity="0.2" fill="#87c7ff" id="svg_9"/>
  <path d="m199.31429,199.31429m-27.42856,0a27.42857,27.42857 0 1 0 54.85715,0a27.42857,27.42857 0 1 0 -54.85715,0z" fill-opacity="0.2" fill="#87c7ff" id="svg_10"/>
  <path d="m2302.17139,378.51428m-78.62866,0a78.62857,78.62857 0 1 0 157.25732,0a78.62857,78.62857 0 1 0 -157.25732,0z" fill-opacity="0.204" fill="#87c7ff" id="svg_11"/>
  <path d="m212.11429,544.91431m-14.62857,0a14.62857,14.62857 0 1 0 29.25714,0a14.62857,14.62857 0 1 0 -29.25714,0z" fill-opacity="0.2" fill="#87c7ff" id="svg_12"/>
  <path d="m1982.17139,746.05713m-14.62854,0a14.62857,14.62857 0 1 0 29.25708,0a14.62857,14.62857 0 1 0 -29.25708,0z" fill-opacity="0.2" fill="#87c7ff" id="svg_13"/>
  <path d="m2172.34277,135.31429m-18.28564,0a18.28571,18.28571 0 1 0 36.57129,0a18.28571,18.28571 0 1 0 -36.57129,0z" fill-opacity="0.2" fill="#87c7ff" id="svg_14"/>
  <path d="m1649.37146,618.05713m-18.28577,0a18.28571,18.28571 0 1 0 36.57153,0a18.28571,18.28571 0 1 0 -36.57153,0z" fill-opacity="0.2" fill="#87c7ff" id="svg_15"/>
  <path d="m849.1593,452.19839l11.00067,0l0,23.99084l23.99084,0l0,11.0007l-23.99084,0l0,24.10788l-11.00067,0l0,-24.10788l-24.10785,0l0,-11.0007l24.10791,0l-0.00006,-23.99084zm796.90613,-160.27063l5.50037,0l0,11.99542l11.99536,0l0,5.50037l-11.99536,0l0,12.05392l-5.50037,0l0,-12.05392l-12.05396,0l0,-5.50037l12.05396,0l0,-11.99542z" fill="#289bff" id="svg_16"/>
</svg>