<?xml version="1.0" standalone="no"?><!DOCTYPE svg PUBLIC "-//W3C//DTD SVG 1.1//EN" "http://www.w3.org/Graphics/SVG/1.1/DTD/svg11.dtd"><svg t="1584384722535" class="icon" viewBox="0 0 2560 1024" version="1.1" xmlns="http://www.w3.org/2000/svg" p-id="56894" xmlns:xlink="http://www.w3.org/1999/xlink" width="320" height="128"><defs><style type="text/css"></style></defs><path d="M0 0h2560v1024H0z" fill="#0289FF" p-id="56895"></path><path d="M0 1024l0.219429-172.778057c106.934857-33.846857 341.796571-79.312457 481.4592 111.553828 1.042286-1.0752 154.569143-181.496686 258.282057-167.533714 103.709257 13.959314 114.267429 66.552686 167.562971 83.766857 53.2992 17.210514 226.852571 54.740114 314.126629-202.437485 2.117486 0.789943 118.699886 0 118.699885 0s36.359314 212.955429 293.185829 209.418971c30.573714-1.865143 97.557943-28.269714 146.592914-76.789029 49.034971-48.515657 123.691886-60.423314 223.407543 20.944458 25.398857 13.169371 107.962514 63.550171 237.341257-20.944458 28.938971-20.962743 199.683657-91.176229 319.228343 92.130743L2560 1024H0z" fill="#FFFFFF" p-id="56896"></path><path d="M1072.530286 508.990171s51.843657-39.716571 70.922971-46.705371c19.075657-6.985143 21.504 10.463086 21.504 23.350857v179.836343c0 12.887771-21.504 23.350857-21.504 23.350857S1081.014857 735.498971 1072.530286 735.528229c-8.484571 0.036571-16.142629-10.496-21.471086-23.350858 0 0-19.748571-62.339657 0-179.836342a73.775543 73.775543 0 0 1 21.467429-23.350858zM1487.330743 508.990171s-51.843657-39.716571-70.919314-46.705371c-19.079314-6.985143-21.504 10.463086-21.504 23.350857v179.836343c0 12.887771 21.504 23.350857 21.504 23.350857s62.431086 46.676114 70.919314 46.705372c8.484571 0.036571 16.142629-10.496 21.467428-23.350858 0 0 19.748571-62.339657 0-179.836342a73.775543 73.775543 0 0 0-21.467428-23.350858z" fill="#87C7FF" p-id="56897"></path><path d="M1282.069943 135.314286c67.057371 0 170.869029 210.176 170.869028 383.023543 0 169.530514-40.1664 242.746514-40.1664 242.746514l-257.4848 0.128s-44.0576-70.026971-44.0576-242.874514C1111.230171 345.490286 1215.012571 135.314286 1282.069943 135.314286z" fill="#FFFFFF" p-id="56898"></path><path d="M1433.819429 699.4432c-10.353371 42.152229-21.046857 61.641143-21.046858 61.641143l-257.4848 0.128s-11.977143-19.039086-23.442285-61.769143h301.970285zM1285.745371 135.519086c29.498514 3.247543 65.367771 44.814629 96.3072 104.799085H1182.098286C1213.0304 180.333714 1248.896 138.766629 1278.390857 135.519086h7.354514z" fill="#87C7FF" p-id="56899"></path><path d="M1281.525029 433.762743m-82.947658 0a82.947657 82.947657 0 1 0 165.895315 0 82.947657 82.947657 0 1 0-165.895315 0Z" fill="#87C7FF" p-id="56900"></path><path d="M1281.525029 433.762743m-57.424458 0a57.424457 57.424457 0 1 0 114.848915 0 57.424457 57.424457 0 1 0-114.848915 0Z" fill="#FFFFFF" p-id="56901"></path><path d="M599.771429 305.371429c31.305143 0 56.685714-25.380571 56.685714-56.685715 0-31.305143-25.380571-56.685714-56.685714-56.685714-31.305143 0-56.685714 25.380571-56.685715 56.685714 0 31.305143 25.380571 56.685714 56.685715 56.685715z m0-10.971429c-25.248914 0-45.714286-20.465371-45.714286-45.714286s20.465371-45.714286 45.714286-45.714285 45.714286 20.465371 45.714285 45.714285-20.465371 45.714286-45.714285 45.714286zM1916.342857 493.714286c20.1984 0 36.571429-16.373029 36.571429-36.571429s-16.373029-36.571429-36.571429-36.571428-36.571429 16.373029-36.571428 36.571428 16.373029 36.571429 36.571428 36.571429z m0-14.628572a21.942857 21.942857 0 1 1 0-43.885714 21.942857 21.942857 0 0 1 0 43.885714z" fill="#87C7FF" fill-opacity=".2" p-id="56902"></path><path d="M422.4 744.228571m-107.885714 0a107.885714 107.885714 0 1 0 215.771428 0 107.885714 107.885714 0 1 0-215.771428 0Z" fill="#87C7FF" fill-opacity=".2" p-id="56903"></path><path d="M199.314286 199.314286m-27.428572 0a27.428571 27.428571 0 1 0 54.857143 0 27.428571 27.428571 0 1 0-54.857143 0Z" fill="#87C7FF" fill-opacity=".2" p-id="56904"></path><path d="M2302.171429 378.514286m-78.628572 0a78.628571 78.628571 0 1 0 157.257143 0 78.628571 78.628571 0 1 0-157.257143 0Z" fill="#87C7FF" fill-opacity=".204" p-id="56905"></path><path d="M212.114286 544.914286m-14.628572 0a14.628571 14.628571 0 1 0 29.257143 0 14.628571 14.628571 0 1 0-29.257143 0Z" fill="#87C7FF" fill-opacity=".2" p-id="56906"></path><path d="M1982.171429 746.057143m-14.628572 0a14.628571 14.628571 0 1 0 29.257143 0 14.628571 14.628571 0 1 0-29.257143 0Z" fill="#87C7FF" fill-opacity=".2" p-id="56907"></path><path d="M2172.342857 135.314286m-18.285714 0a18.285714 18.285714 0 1 0 36.571428 0 18.285714 18.285714 0 1 0-36.571428 0Z" fill="#87C7FF" fill-opacity=".2" p-id="56908"></path><path d="M1649.371429 618.057143m-18.285715 0a18.285714 18.285714 0 1 0 36.571429 0 18.285714 18.285714 0 1 0-36.571429 0Z" fill="#87C7FF" fill-opacity=".2" p-id="56909"></path><path d="M849.159314 452.1984h11.000686v23.990857h23.990857v11.000686h-23.990857v24.107886h-11.000686v-24.107886H825.051429v-11.000686h24.107885zM1646.065371 291.927771h5.500343v11.995429h11.995429v5.500343h-11.995429v12.053943h-5.500343v-12.053943H1634.011429v-5.500343h12.053942z" fill="#289BFF" p-id="56910"></path></svg>